HIERARCHY
ROOT joint_Root
{
	OFFSET 0.0 0.0 0.0
	CHANNELS 6 Xposition Yposition Zposition Zrotation Xrotation Yrotation 
	JOINT Hips
	{
		OFFSET -0.726466 93.3139 -2.00062
		CHANNELS 6 Xposition Yposition Zposition Zrotation Xrotation Yrotation 
		JOINT Spine
		{
			OFFSET 15.7357 0.0 0.0
			CHANNELS 6 Xposition Yposition Zposition Zrotation Xrotation Yrotation 
			JOINT Chest
			{
				OFFSET 8.98455 -0.406207 0.0
				CHANNELS 6 Xposition Yposition Zposition Zrotation Xrotation Yrotation 
				JOINT Neck
				{
					OFFSET 16.3773 0.0 0.0
					CHANNELS 6 Xposition Yposition Zposition Zrotation Xrotation Yrotation 
					JOINT Head
					{
						OFFSET 6.45672 0.0 0.0
						CHANNELS 6 Xposition Yposition Zposition Zrotation Xrotation Yrotation 
						End Site
						{
							OFFSET 0.0 0.0 0.0
						}
					}
				}
				JOINT Shoulder_L
				{
					OFFSET 12.9942 -0.242716 4.98039
					CHANNELS 6 Xposition Yposition Zposition Zrotation Xrotation Yrotation 
					JOINT UpperArm_L
					{
						OFFSET 5.34809 0.0 0.0
						CHANNELS 6 Xposition Yposition Zposition Zrotation Xrotation Yrotation 
						JOINT LowerArm_L
						{
							OFFSET 24.3286 1.87007e-05 0.0
							CHANNELS 6 Xposition Yposition Zposition Zrotation Xrotation Yrotation 
							JOINT Hand_L
							{
								OFFSET 22.2916 0.0 0.0
								CHANNELS 6 Xposition Yposition Zposition Zrotation Xrotation Yrotation 
								End Site
								{
									OFFSET 0.0 0.0 0.0
								}
							}
						}
					}
				}
				JOINT Shoulder_R
				{
					OFFSET 12.9945 -0.242716 -4.98039
					CHANNELS 6 Xposition Yposition Zposition Zrotation Xrotation Yrotation 
					JOINT UpperArm_R
					{
						OFFSET -5.34813 0.0 0.0
						CHANNELS 6 Xposition Yposition Zposition Zrotation Xrotation Yrotation 
						JOINT LowerArm_R
						{
							OFFSET -24.3289 0.000322201 0.0
							CHANNELS 6 Xposition Yposition Zposition Zrotation Xrotation Yrotation 
							JOINT Hand_R
							{
								OFFSET -22.2915 -0.000108084 0.0
								CHANNELS 6 Xposition Yposition Zposition Zrotation Xrotation Yrotation 
								End Site
								{
									OFFSET 0.0 0.0 0.0
								}
							}
						}
					}
				}
			}
		}
		JOINT UpperLeg_L
		{
			OFFSET -2.19248 -6.46944 0.0
			CHANNELS 6 Xposition Yposition Zposition Zrotation Xrotation Yrotation 
			JOINT LowerLeg_L
			{
				OFFSET 39.0811 0.0 -1.23785e-05
				CHANNELS 6 Xposition Yposition Zposition Zrotation Xrotation Yrotation 
				JOINT Foot_L
				{
					OFFSET 40.9854 0.0 -1.26872e-05
					CHANNELS 6 Xposition Yposition Zposition Zrotation Xrotation Yrotation 
					JOINT Toes_L
					{
						OFFSET 11.7543 0.0 0.0
						CHANNELS 6 Xposition Yposition Zposition Zrotation Xrotation Yrotation 
						End Site
						{
							OFFSET 0.0 0.0 0.0
						}
					}
				}
			}
		}
		JOINT UpperLeg_R
		{
			OFFSET -2.19251 6.46944 0.0
			CHANNELS 6 Xposition Yposition Zposition Zrotation Xrotation Yrotation 
			JOINT LowerLeg_R
			{
				OFFSET -39.0811 -0.00228153 -0.0401928
				CHANNELS 6 Xposition Yposition Zposition Zrotation Xrotation Yrotation 
				JOINT Foot_R
				{
					OFFSET -40.9854 0.0 0.0
					CHANNELS 6 Xposition Yposition Zposition Zrotation Xrotation Yrotation 
					JOINT Toes_R
					{
						OFFSET -11.7543 0.0 0.0
						CHANNELS 6 Xposition Yposition Zposition Zrotation Xrotation Yrotation 
						End Site
						{
							OFFSET 0.0 0.0 0.0
						}
					}
				}
			}
		}
	}
}
MOTION
Frames:	6
Frame Time:	0.0333333
0.000000 0.000000 0.000000 0.000000 0.000000 -0.000000 -2.062070 95.459100 -11.472700 86.975900 7.734520 -8.579660 15.735700 0.000005 -0.000001 45.589600 81.730300 -42.966400 8.984550 -0.406207 -0.000000 4.395940 -11.633300 5.702560 16.377300 -0.000001 -0.000001 -1.848540 -2.571820 0.482959 6.456720 -0.000001 -0.000000 -0.267225 2.751280 -0.379792 12.994200 -0.242716 4.980390 -87.376200 -8.572910 -72.911300 5.348090 -0.000007 -0.000001 -72.751900 32.942300 -21.154200 24.328600 0.000019 0.000005 -2.320070 0.998798 -113.279000 22.291600 -0.000001 0.000005 2.279790 5.613840 -12.193600 12.994500 -0.242716 -4.980390 91.423700 -3.189530 -65.929900 -5.348130 -0.000001 -0.000004 -78.400300 31.306300 22.661300 -24.328900 0.000322 -0.000009 0.685662 0.065039 -84.615000 -22.291500 -0.000108 -0.000004 4.860780 5.567420 -9.556130 -2.192480 -6.469440 -0.000000 -173.167000 -6.262290 8.106470 39.081100 -0.000007 -0.000012 0.050544 -0.080247 32.204700 40.985400 -0.000006 -0.000013 1.997320 0.098832 -37.535000 11.754300 -0.000000 0.000003 -0.008397 -0.091252 -20.293100 -2.192510 6.469440 -0.000001 -171.252000 10.785000 146.320000 -39.081100 -0.002282 -0.040193 -0.010837 0.031681 24.068500 -40.985400 0.000008 0.000006 -0.022183 3.545010 -64.265600 -11.754300 -0.000006 -0.000006 -0.029795 -0.216522 -25.443000
0.000000 0.000000 0.000000 0.000000 0.000000 -0.000000 -1.536740 94.389400 -0.864150 90.538500 6.676530 -7.144390 15.735700 0.000005 -0.000001 47.787100 81.717800 -46.392200 8.984550 -0.406207 -0.000000 4.712270 -11.146800 3.253520 16.377300 -0.000001 -0.000001 -1.678210 -2.902040 0.294475 6.456720 -0.000001 -0.000000 -0.458205 2.451200 0.268371 12.994200 -0.242716 4.980390 -87.466500 -8.386080 -73.122600 5.348090 -0.000007 -0.000001 -72.331100 34.710000 -18.357100 24.328600 0.000019 0.000005 -2.852650 1.009440 -109.475000 22.291600 -0.000001 0.000005 3.503430 5.635510 -13.742400 12.994500 -0.242716 -4.980390 91.089600 -2.418030 -65.734100 -5.348130 -0.000001 -0.000004 -77.896900 29.231600 21.763300 -24.328900 0.000322 -0.000009 0.547262 0.049732 -84.847700 -22.291500 -0.000108 -0.000004 4.805870 5.566160 -9.493140 -2.192480 -6.469440 -0.000000 -178.011000 -3.199110 9.534150 39.081100 -0.000007 -0.000012 0.047067 -0.048912 43.897100 40.985400 -0.000006 -0.000013 3.063160 -5.984660 -38.383600 11.754300 -0.000000 0.000003 -0.007170 -0.081127 -19.879600 -2.192510 6.469440 -0.000001 -173.874000 15.591600 150.622000 -39.081100 -0.002282 -0.040193 -0.040561 0.175635 14.031300 -40.985400 0.000008 0.000006 -6.566490 10.845600 -66.616700 -11.754300 -0.000006 -0.000006 -0.033562 -0.233348 -26.142000
0.000000 0.000000 0.000000 0.000000 0.000000 -0.000000 -1.296640 92.315800 9.627990 91.049300 5.016520 -5.319070 15.735700 0.000005 -0.000001 54.697200 81.793800 -53.445700 8.984550 -0.406207 -0.000000 5.795510 -9.482820 2.985530 16.377300 -0.000001 -0.000001 -1.515840 -2.878090 -0.037684 6.456720 -0.000001 -0.000000 -1.106120 1.899860 0.003664 12.994200 -0.242716 4.980390 -87.820300 -7.090760 -72.863000 5.348090 -0.000007 -0.000001 -71.865100 35.758800 -15.100900 24.328600 0.000019 0.000005 -2.877750 0.659114 -102.869000 22.291600 -0.000001 0.000005 4.699070 5.647740 -14.800900 12.994500 -0.242716 -4.980390 90.466300 -1.053840 -66.138100 -5.348130 -0.000001 -0.000004 -75.354800 28.574600 17.240000 -24.328900 0.000322 -0.000009 1.415050 0.131627 -84.699300 -22.291500 -0.000108 -0.000004 5.064700 5.566770 -9.522200 -2.192480 -6.469440 -0.000000 -179.555000 -3.123880 7.745070 39.081100 -0.000007 -0.000012 0.016413 -0.009279 60.505400 40.985400 -0.000006 -0.000013 4.584010 -8.490150 -37.901100 11.754300 -0.000000 0.000003 -0.007524 -0.084111 -20.001400 -2.192510 6.469440 -0.000001 -173.297000 17.208800 152.068000 -39.081100 -0.002282 -0.040193 -0.029182 0.102714 17.562100 -40.985400 0.000008 0.000006 -4.250960 4.869700 -70.251700 -11.754300 -0.000006 -0.000006 -0.030519 -0.219834 -25.580400
0.000000 0.000000 0.000000 0.000000 0.000000 -0.000000 -1.553260 89.373700 19.321000 86.958700 2.352410 -4.040930 15.735700 0.000005 -0.000001 66.181100 81.946000 -63.537200 8.984550 -0.406207 -0.000000 7.160990 -6.496440 5.693750 16.377300 -0.000001 -0.000001 -1.649800 -2.171450 -0.624777 6.456720 -0.000001 -0.000000 -1.932250 1.333830 -0.279852 12.994200 -0.242716 4.980390 -88.323200 -5.196000 -72.084600 5.348090 -0.000007 -0.000001 -70.835200 36.159900 -11.330700 24.328600 0.000019 0.000005 -1.339370 0.100273 -94.231100 22.291600 -0.000001 0.000005 3.587360 5.651680 -15.181200 12.994500 -0.242716 -4.980390 89.456900 1.320010 -67.611200 -5.348130 -0.000001 -0.000004 -69.669700 28.972200 9.611280 -24.328900 0.000322 -0.000009 1.433610 0.087192 -86.567700 -22.291500 -0.000108 -0.000004 6.474490 5.579310 -10.172200 -2.192480 -6.469440 -0.000000 -174.854000 -6.480680 1.163060 39.081100 -0.000007 -0.000012 0.044728 -0.006840 81.296300 40.985400 -0.000006 -0.000013 4.699480 -10.564200 -37.593000 11.754300 -0.000000 0.000003 -0.006598 -0.076184 -19.677900 -2.192510 6.469440 -0.000001 -168.965000 12.619200 149.044000 -39.081100 -0.002282 -0.040193 0.204121 -0.318846 32.204800 -40.985400 0.000008 0.000006 7.743480 1.645860 -63.222900 -11.754300 -0.000006 -0.000006 -0.037674 -0.250702 -26.865000
0.000000 0.000000 0.000000 0.000000 0.000000 -0.000000 -1.843910 85.823500 28.464000 85.161300 -0.400789 -3.420400 15.735700 0.000005 -0.000001 76.707900 82.060600 -73.441100 8.984550 -0.406207 -0.000000 7.811670 -3.634440 6.777170 16.377300 -0.000001 -0.000001 -2.852760 -1.462160 -1.284310 6.456720 -0.000001 -0.000000 -1.650200 0.752304 -0.901717 12.994200 -0.242716 4.980390 -88.917500 -3.180010 -71.188600 5.348090 -0.000007 -0.000001 -68.725600 37.059800 -6.992060 24.328600 0.000019 0.000005 -1.091780 -0.127040 -83.330400 22.291600 -0.000001 0.000005 -0.899306 5.649570 -14.974000 12.994500 -0.242716 -4.980390 88.361900 4.235140 -68.828100 -5.348130 -0.000001 -0.000004 -61.337600 29.797400 -0.963539 -24.328900 0.000322 -0.000009 -1.932680 0.015775 -90.434200 -22.291500 -0.000108 -0.000004 8.580400 5.580900 -10.260100 -2.192480 -6.469440 -0.000000 -173.493000 -8.953310 -8.499120 39.081100 -0.000007 -0.000012 -0.072885 -0.014400 101.185000 40.985400 -0.000006 -0.000013 7.360380 -10.870600 -37.497200 11.754300 -0.000000 0.000003 -0.006246 -0.073064 -19.550600 -2.192510 6.469440 -0.000001 -168.272000 6.306160 147.259000 -39.081100 -0.002282 -0.040193 -0.014643 0.015711 48.718500 -40.985400 0.000008 0.000006 11.327700 -3.544340 -70.243700 -11.754300 -0.000006 -0.000006 -0.011764 -0.116378 -21.317000
0.000000 0.000000 0.000000 0.000000 0.000000 -0.000000 -1.956900 83.336400 37.380200 84.437100 -2.666530 -0.964819 15.735700 0.000005 -0.000001 84.013700 81.077800 -80.510900 8.984550 -0.406207 -0.000000 10.049100 -1.779260 7.157660 16.377300 -0.000001 -0.000001 -3.330490 -0.724282 -1.168800 6.456720 -0.000001 -0.000000 -2.354240 0.930331 -2.709830 12.994200 -0.242716 4.980390 -89.417600 -1.652700 -70.584600 5.348090 -0.000007 -0.000001 -68.201400 36.415200 -1.091580 24.328600 0.000019 0.000005 3.124850 1.081870 -71.086600 22.291600 -0.000001 0.000005 -3.500720 5.656630 -15.708800 12.994500 -0.242716 -4.980390 87.885000 5.779390 -69.859000 -5.348130 -0.000001 -0.000004 -52.596000 30.495900 -17.462000 -24.328900 0.000322 -0.000009 -1.280410 0.046339 -92.086900 -22.291500 -0.000108 -0.000004 12.387700 5.584430 -10.451500 -2.192480 -6.469440 -0.000000 -174.622000 -8.850180 -18.860100 39.081100 -0.000007 -0.000012 -0.445072 -0.213510 115.629000 40.985400 -0.000006 -0.000013 10.795500 -7.025980 -36.681100 11.754300 -0.000000 0.000003 -0.006485 -0.075185 -19.637100 -2.192510 6.469440 -0.000001 -168.023000 6.869590 152.629000 -39.081100 -0.002282 -0.040193 0.250859 -0.159585 57.201700 -40.985400 0.000008 0.000006 13.939500 -5.017400 -80.503100 -11.754300 -0.000006 -0.000006 -0.008904 -0.095259 -20.453100
